<svg xmlns="http://www.w3.org/2000/svg" viewBox="0 0 64 64" fill="none" stroke="#e8c547" stroke-width="2.6" stroke-linecap="round" stroke-linejoin="round">
  <title>Ant</title>
  <ellipse cx="32" cy="14" rx="6" ry="5" fill="#e8c547" stroke="none"/>
  <ellipse cx="32" cy="30" rx="5" ry="6" fill="#e8c547" stroke="none"/>
  <ellipse cx="32" cy="48" rx="7.5" ry="9.5" fill="#e8c547" stroke="none"/>
  <path d="M29 10 Q24 4 20 5"/>
  <circle cx="20" cy="5" r="1.4" fill="#e8c547" stroke="none"/>
  <path d="M35 10 Q40 4 44 5"/>
  <circle cx="44" cy="5" r="1.4" fill="#e8c547" stroke="none"/>
  <path d="M27 26 Q14 22 7 14"/>
  <path d="M27 30 Q12 30 4 30"/>
  <path d="M27 34 Q14 38 7 46"/>
  <path d="M37 26 Q50 22 57 14"/>
  <path d="M37 30 Q52 30 60 30"/>
  <path d="M37 34 Q50 38 57 46"/>
</svg>
